<svg width="102" height="70" viewBox="0 0 102 70" fill="none" xmlns="http://www.w3.org/2000/svg">
<mask id="path-1-inside-1_636_155" fill="white">
<path d="M0 0H81.6129C92.6586 0 101.613 8.95431 101.613 20V50C101.613 61.0457 92.6586 70 81.6129 70H0V0Z"/>
</mask>
<path d="M0 0H81.6129C92.6586 0 101.613 8.95431 101.613 20V50C101.613 61.0457 92.6586 70 81.6129 70H0V0Z" fill="url(#paint0_linear_636_155)"/>
<path d="M0 -1H81.6129C93.2109 -1 102.613 8.40202 102.613 20H100.613C100.613 9.50659 92.1063 1 81.6129 1H0V-1ZM102.613 50C102.613 61.598 93.2109 71 81.6129 71H0V69H81.6129C92.1063 69 100.613 60.4934 100.613 50H102.613ZM0 70V0V70ZM81.6129 -1C93.2109 -1 102.613 8.40202 102.613 20V50C102.613 61.598 93.2109 71 81.6129 71V69C92.1063 69 100.613 60.4934 100.613 50V20C100.613 9.50659 92.1063 1 81.6129 1V-1Z" fill="black" mask="url(#path-1-inside-1_636_155)"/>
<path d="M66.3713 32.4512L39.5497 18.0179C37.2973 16.8028 34.6893 18.907 35.4005 21.3669L39.0755 34.2294C39.2237 34.7629 39.2237 35.2963 39.0755 35.8298L35.4005 48.6923C34.6893 51.1522 37.2973 53.2564 39.5497 52.0413L66.3713 37.608C66.8289 37.358 67.2107 36.9894 67.4767 36.541C67.7427 36.0925 67.8831 35.5807 67.8831 35.0593C67.8831 34.5378 67.7427 34.026 67.4767 33.5775C67.2107 33.1291 66.8289 32.7605 66.3713 32.5105V32.4512Z" fill="white"/>
<defs>
<linearGradient id="paint0_linear_636_155" x1="50.8064" y1="0" x2="50.8064" y2="70" gradientUnits="userSpaceOnUse">
<stop offset="0.48" stop-color="#3DB665"/>
<stop offset="1" stop-color="#01A037"/>
</linearGradient>
</defs>
</svg>
